<svg width="32" height="31" viewBox="0 0 32 31" fill="none" xmlns="http://www.w3.org/2000/svg">
<path d="M26.9499 3.1H8.1499C6.49305 3.1 5.1499 4.44314 5.1499 6.1V23.35C5.1499 25.0069 6.49305 26.35 8.1499 26.35H26.9499C28.6068 26.35 29.9499 25.0069 29.9499 23.35V6.1C29.9499 4.44314 28.6068 3.1 26.9499 3.1Z" fill="#FDCA7E"/>
<path d="M14.0625 17.4375H8.25V19.375H14.0625V17.4375Z" fill="#AF6900"/>
<path d="M17.9375 21.3125H8.25V23.25H17.9375V21.3125Z" fill="#AF6900"/>
<path d="M25.6875 3.875H6.3125C5.79884 3.87564 5.3064 4.07998 4.94319 4.44319C4.57998 4.8064 4.37564 5.29884 4.375 5.8125V25.1875C4.37564 25.7012 4.57998 26.1936 4.94319 26.5568C5.3064 26.92 5.79884 27.1244 6.3125 27.125H25.6875C26.2012 27.1244 26.6936 26.92 27.0568 26.5568C27.42 26.1936 27.6244 25.7012 27.625 25.1875V5.8125C27.6244 5.29884 27.42 4.8064 27.0568 4.44319C26.6936 4.07998 26.2012 3.87564 25.6875 3.875V3.875ZM17.9375 5.8125V9.6875H14.0625V5.8125H17.9375ZM6.3125 25.1875V5.8125H12.125V11.625H19.875V5.8125H25.6875L25.6887 25.1875H6.3125Z" fill="#AF6900"/>
</svg>
