<svg width="130" height="31" viewBox="0 0 130 31" fill="none" xmlns="http://www.w3.org/2000/svg">
<path d="M26.9499 3.1H8.1499C6.49305 3.1 5.1499 4.44314 5.1499 6.1V23.35C5.1499 25.0069 6.49305 26.35 8.1499 26.35H26.9499C28.6068 26.35 29.9499 25.0069 29.9499 23.35V6.1C29.9499 4.44314 28.6068 3.1 26.9499 3.1Z" fill="#FDCA7E"/>
<path d="M14.0625 17.4375H8.25V19.375H14.0625V17.4375Z" fill="#AF6900"/>
<path d="M17.9375 21.3125H8.25V23.25H17.9375V21.3125Z" fill="#AF6900"/>
<path d="M25.6875 3.875H6.3125C5.79884 3.87564 5.3064 4.07998 4.94319 4.44319C4.57998 4.8064 4.37564 5.29884 4.375 5.8125V25.1875C4.37564 25.7012 4.57998 26.1936 4.94319 26.5568C5.3064 26.92 5.79884 27.1244 6.3125 27.125H25.6875C26.2012 27.1244 26.6936 26.92 27.0568 26.5568C27.42 26.1936 27.6244 25.7012 27.625 25.1875V5.8125C27.6244 5.29884 27.42 4.8064 27.0568 4.44319C26.6936 4.07998 26.2012 3.87564 25.6875 3.875ZM17.9375 5.8125V9.6875H14.0625V5.8125H17.9375ZM6.3125 25.1875V5.8125H12.125V11.625H19.875V5.8125H25.6875L25.6887 25.1875H6.3125Z" fill="#AF6900"/>
<path d="M39.2598 22.5V17.9688L40.6465 16.3477L45.2266 22.5H48.293L42.4434 14.6582L47.873 8.4082H44.9727L39.3477 15H39.2598V8.4082H36.7402V22.5H39.2598ZM53.253 20.8301C52.1984 20.8301 51.4952 20.293 51.4952 19.4434C51.4952 18.623 52.1691 18.0957 53.3409 18.0176L55.7335 17.8711V18.6621C55.7335 19.9121 54.63 20.8301 53.253 20.8301ZM52.5206 22.666C53.8488 22.666 55.1476 21.9727 55.7433 20.8496H55.7921V22.5H58.1359V15.3711C58.1359 13.291 56.4659 11.9336 53.8976 11.9336C51.2609 11.9336 49.6105 13.3203 49.503 15.2539H51.7589C51.9152 14.3945 52.6476 13.8379 53.7999 13.8379C55.0011 13.8379 55.7335 14.4629 55.7335 15.5469V16.2891L52.9991 16.4453C50.4796 16.6016 49.0636 17.7051 49.0636 19.541C49.0636 21.4062 50.5187 22.666 52.5206 22.666ZM60.4788 22.5H62.9104V16.5039C62.9104 15.0195 63.7991 14.0137 65.1955 14.0137C66.5823 14.0137 67.2659 14.834 67.2659 16.2988V22.5H69.6975V15.8105C69.6975 13.418 68.3987 11.9531 66.1135 11.9531C64.5217 11.9531 63.4182 12.6953 62.8616 13.9258H62.8127V12.1484H60.4788V22.5ZM76.6107 22.7051C79.6478 22.7051 81.6205 20.6836 81.6205 17.3242C81.6205 13.9746 79.6283 11.9336 76.6107 11.9336C73.5931 11.9336 71.6009 13.9844 71.6009 17.3242C71.6009 20.6836 73.5736 22.7051 76.6107 22.7051ZM76.6107 20.7812C75.0677 20.7812 74.0716 19.5312 74.0716 17.3242C74.0716 15.127 75.0775 13.8672 76.6107 13.8672C78.1537 13.8672 79.1498 15.127 79.1498 17.3242C79.1498 19.5312 78.1537 20.7812 76.6107 20.7812ZM86.3266 22.5V16.748H92.2348V14.6973H86.3266V10.5371H92.7915V8.4082H83.8071V22.5H86.3266ZM99.0113 22.7051C102.048 22.7051 104.021 20.6836 104.021 17.3242C104.021 13.9746 102.029 11.9336 99.0113 11.9336C95.9938 11.9336 94.0016 13.9844 94.0016 17.3242C94.0016 20.6836 95.9742 22.7051 99.0113 22.7051ZM99.0113 20.7812C97.4684 20.7812 96.4723 19.5312 96.4723 17.3242C96.4723 15.127 97.4781 13.8672 99.0113 13.8672C100.554 13.8672 101.55 15.127 101.55 17.3242C101.55 19.5312 100.554 20.7812 99.0113 20.7812ZM105.964 22.5H108.395V16.4746C108.395 15.0195 109.225 14.1309 110.602 14.1309C111.012 14.1309 111.384 14.1895 111.589 14.2676V12.0703C111.413 12.0312 111.139 11.9727 110.827 11.9727C109.606 11.9727 108.698 12.6953 108.346 13.9551H108.298V12.1484H105.964V22.5ZM113.219 22.5H115.65V16.1621C115.65 14.9121 116.471 14.0039 117.642 14.0039C118.775 14.0039 119.478 14.7168 119.478 15.8691V22.5H121.842V16.1035C121.842 14.8633 122.642 14.0039 123.814 14.0039C125.006 14.0039 125.67 14.7266 125.67 15.9961V22.5H128.101V15.4004C128.101 13.3301 126.764 11.9531 124.723 11.9531C123.228 11.9531 121.998 12.7539 121.5 14.0332H121.441C121.06 12.7051 120.015 11.9531 118.551 11.9531C117.144 11.9531 116.051 12.7441 115.601 13.9453H115.553V12.1484H113.219V22.5Z" fill="#696969"/>
</svg>
